<svg xmlns="http://www.w3.org/2000/svg" viewBox="0 0 511.99 429.63"><defs><style>.cls-1{fill:#fff; opacity: 0.7;}</style></defs><title>Ресурс 1</title><g id="Слой_2" data-name="Слой 2"><g id="Capa_1" data-name="Capa 1"><path class="cls-1" d="M188.75,368.19a7.73,7.73,0,0,1-5.58-2.37L69.93,248.44a7.76,7.76,0,0,1-2.17-5.39v-39.7A22.17,22.17,0,0,1,82,182.51C177.24,145.66,401.17,59.93,423.49,59.93c26.57,0,51.64,12.13,68.79,33.3A87.83,87.83,0,0,1,510.06,167c-7.34,34.69-35.59,62.23-70.3,68.5a88.86,88.86,0,0,1-57.74-8.9l-99.72,129a22.29,22.29,0,0,1-26.57,6.64c-13.06-5.69-38.52-12.69-62.48,4.43A7.69,7.69,0,0,1,188.75,368.19ZM83.27,239.93,189.88,350.45c28.43-16.83,57-8.9,72.08-2.32a6.76,6.76,0,0,0,8.08-1.91l103.9-134.45A7.71,7.71,0,0,1,384.25,210,72.33,72.33,0,0,0,437,220.29c28.57-5.17,51.84-27.84,57.88-56.45A71.47,71.47,0,0,0,480.24,103c-14-17.25-35.19-27.54-56.73-27.54-13.36.11-148.35,49-335.89,121.54a6.74,6.74,0,0,0-4.33,6.36v36.55Z"/><path class="cls-1" d="M109.14,147.85a28.49,28.49,0,0,1-9.87-55.2l12.44-4.59a28.47,28.47,0,0,1,19.77,53.39h0l-12.43,4.6A28.25,28.25,0,0,1,109.14,147.85Zm12.43-46.06a13.11,13.11,0,0,0-4.49.81l-12.43,4.61a13,13,0,0,0,9,24.3l12.43-4.6a13,13,0,0,0-4.51-25.12Z"/><path class="cls-1" d="M186.84,119.08A28.62,28.62,0,0,1,175,116.46a28.47,28.47,0,0,1,2-52.56l12.43-4.61a28.47,28.47,0,0,1,19.78,53.4l-12.43,4.6A28.25,28.25,0,0,1,186.84,119.08Zm12.43-46a13,13,0,0,0-4.48.8l-12.43,4.61a13,13,0,0,0,9,24.32l12.43-4.61h0A13,13,0,0,0,199.27,73Z"/><path class="cls-1" d="M264.53,90.31a28.47,28.47,0,0,1-9.87-55.17l12.43-4.6a28.46,28.46,0,1,1,19.75,53.38l-12.39,4.61A28.66,28.66,0,0,1,264.53,90.31ZM277,44.26a12.92,12.92,0,0,0-4.52.81l-12.44,4.6a13,13,0,0,0-.9,24,12.85,12.85,0,0,0,9.91.37l12.43-4.61h0A13,13,0,0,0,277,44.26Z"/><path class="cls-1" d="M342.24,61.54a28.47,28.47,0,0,1-9.89-55.17l12.43-4.59a28.47,28.47,0,1,1,19.77,53.39h0l-12.43,4.59A28.17,28.17,0,0,1,342.24,61.54Zm12.44-46a13.29,13.29,0,0,0-4.51.81l-12.43,4.59a13,13,0,0,0-.92,23.93,12.79,12.79,0,0,0,9.92.37l12.42-4.59a13,13,0,0,0,.94-23.91A13,13,0,0,0,354.68,15.49Z"/><path class="cls-1" d="M7.76,314.46a7.77,7.77,0,0,1-5.2-13.53l68.72-62.11a7.76,7.76,0,1,1,10.41,11.52L13,312.46A7.71,7.71,0,0,1,7.76,314.46Z"/><path class="cls-1" d="M45.07,352.86a7.77,7.77,0,0,1-5.2-13.53L108.6,277.2A7.77,7.77,0,0,1,119,288.73L50.27,350.86A7.77,7.77,0,0,1,45.07,352.86Z"/><path class="cls-1" d="M82.39,391.25a7.77,7.77,0,0,1-5.2-13.53l68.71-62.13a7.77,7.77,0,0,1,10.41,11.53L87.6,389.24A7.72,7.72,0,0,1,82.39,391.25Z"/><path class="cls-1" d="M119.71,429.63a7.77,7.77,0,0,1-5.2-13.53L183.21,354a7.77,7.77,0,0,1,10.41,11.53L124.9,427.63A7.63,7.63,0,0,1,119.71,429.63Z"/></g></g></svg>